<?xml version="1.0" encoding="UTF-8" standalone="no"?>
<!-- Created with Inkscape (http://www.inkscape.org/) -->

<svg
   xmlns:dc="http://purl.org/dc/elements/1.1/"
   xmlns:cc="http://creativecommons.org/ns#"
   xmlns:rdf="http://www.w3.org/1999/02/22-rdf-syntax-ns#"
   xmlns:svg="http://www.w3.org/2000/svg"
   xmlns="http://www.w3.org/2000/svg"
   xmlns:sodipodi="http://sodipodi.sourceforge.net/DTD/sodipodi-0.dtd"
   xmlns:inkscape="http://www.inkscape.org/namespaces/inkscape"
   width="744.09448819"
   height="1052.3622047"
   id="svg3018"
   version="1.1"
   inkscape:version="0.48.4 r9939"
   sodipodi:docname="distributed_network.svg">
  <defs
     id="defs3020" />
  <sodipodi:namedview
     id="base"
     pagecolor="#ffffff"
     bordercolor="#666666"
     borderopacity="1.0"
     inkscape:pageopacity="0.0"
     inkscape:pageshadow="2"
     inkscape:zoom="0.35"
     inkscape:cx="-102.14286"
     inkscape:cy="520"
     inkscape:document-units="px"
     inkscape:current-layer="layer2"
     showgrid="false"
     inkscape:window-width="1366"
     inkscape:window-height="718"
     inkscape:window-x="0"
     inkscape:window-y="0"
     inkscape:window-maximized="1" />
  <metadata
     id="metadata3023">
    <rdf:RDF>
      <cc:Work
         rdf:about="">
        <dc:format>image/svg+xml</dc:format>
        <dc:type
           rdf:resource="http://purl.org/dc/dcmitype/StillImage" />
        <dc:title></dc:title>
      </cc:Work>
    </rdf:RDF>
  </metadata>
  <g
     inkscape:groupmode="layer"
     id="layer2"
     inkscape:label="connections">
    <path
       style="fill:none;stroke:#000000;stroke-width:5;stroke-linecap:butt;stroke-linejoin:miter;stroke-opacity:1;stroke-miterlimit:4;stroke-dasharray:none"
       d="M 108.57143,200.93361 185.71429,346.6479 374.28571,195.21933 491.42857,383.79075 642.85714,226.6479 377.14286,195.21933 l -288.571431,-20 0,340 L 180,349.50504 l 145.71429,171.42857 45.71428,-322.85714 54.28572,540 65.71428,-360 134.28572,240 17.14285,-380 -17.14285,380 17.14285,305.71428 L 411.42857,755.21933 285.71429,920.93361 642.85714,926.6479 491.42857,378.07647 320,526.6479 228.57143,663.79075 414.28571,758.07647 122.85714,789.50504 288.57143,923.79075 231.42857,666.6479 l -100,120 L 85.714286,512.36218 220,652.36218 182.85714,346.6479"
       id="path3153"
       inkscape:connector-curvature="0" />
    <path
       style="fill:none;stroke:#000000;stroke-width:5;stroke-linecap:butt;stroke-linejoin:miter;stroke-opacity:1;stroke-miterlimit:4;stroke-dasharray:none"
       d="M 320,515.21933 628.57143,612.36218 420,760.93361 z"
       id="path3942"
       inkscape:connector-curvature="0" />
  </g>
  <g
     inkscape:label="Layer 1"
     inkscape:groupmode="layer"
     id="layer1">
    <path
       sodipodi:type="arc"
       style="fill:#808080"
       id="path3020-4"
       sodipodi:cx="180"
       sodipodi:cy="179.50504"
       sodipodi:rx="51.42857"
       sodipodi:ry="41.42857"
       d="m 231.42857,179.50504 a 51.42857,41.42857 0 1 1 -102.85714,0 51.42857,41.42857 0 1 1 102.85714,0 z"
       transform="translate(-88.571429,-4.2857099)" />
    <path
       sodipodi:type="arc"
       style="fill:#808080"
       id="path3020-4-4"
       sodipodi:cx="180"
       sodipodi:cy="179.50504"
       sodipodi:rx="51.42857"
       sodipodi:ry="41.42857"
       d="m 231.42857,179.50504 a 51.42857,41.42857 0 1 1 -102.85714,0 51.42857,41.42857 0 1 1 102.85714,0 z"
       transform="translate(188.57143,18.571433)" />
    <path
       sodipodi:type="arc"
       style="fill:#808080"
       id="path3020-4-2"
       sodipodi:cx="180"
       sodipodi:cy="179.50504"
       sodipodi:rx="51.42857"
       sodipodi:ry="41.42857"
       d="m 231.42857,179.50504 a 51.42857,41.42857 0 1 1 -102.85714,0 51.42857,41.42857 0 1 1 102.85714,0 z"
       transform="translate(457.14286,52.857147)" />
    <path
       sodipodi:type="arc"
       style="fill:#808080"
       id="path3020-4-6"
       sodipodi:cx="180"
       sodipodi:cy="179.50504"
       sodipodi:rx="51.42857"
       sodipodi:ry="41.42857"
       d="m 231.42857,179.50504 a 51.42857,41.42857 0 1 1 -102.85714,0 51.42857,41.42857 0 1 1 102.85714,0 z"
       transform="translate(5.7142857,170)" />
    <path
       sodipodi:type="arc"
       style="fill:#808080"
       id="path3020-4-1"
       sodipodi:cx="180"
       sodipodi:cy="179.50504"
       sodipodi:rx="51.42857"
       sodipodi:ry="41.42857"
       d="m 231.42857,179.50504 a 51.42857,41.42857 0 1 1 -102.85714,0 51.42857,41.42857 0 1 1 102.85714,0 z"
       transform="translate(308.57143,204.28572)" />
    <path
       sodipodi:type="arc"
       style="fill:#808080"
       id="path3020-4-8"
       sodipodi:cx="180"
       sodipodi:cy="179.50504"
       sodipodi:rx="51.42857"
       sodipodi:ry="41.42857"
       d="m 231.42857,179.50504 a 51.42857,41.42857 0 1 1 -102.85714,0 51.42857,41.42857 0 1 1 102.85714,0 z"
       transform="translate(445.71429,435.71429)" />
    <path
       sodipodi:type="arc"
       style="fill:#808080"
       id="path3020-4-85"
       sodipodi:cx="180"
       sodipodi:cy="179.50504"
       sodipodi:rx="51.42857"
       sodipodi:ry="41.42857"
       d="m 231.42857,179.50504 a 51.42857,41.42857 0 1 1 -102.85714,0 51.42857,41.42857 0 1 1 102.85714,0 z"
       transform="translate(140,335.71429)" />
    <path
       sodipodi:type="arc"
       style="fill:#808080"
       id="path3020-4-0"
       sodipodi:cx="180"
       sodipodi:cy="179.50504"
       sodipodi:rx="51.42857"
       sodipodi:ry="41.42857"
       d="m 231.42857,179.50504 a 51.42857,41.42857 0 1 1 -102.85714,0 51.42857,41.42857 0 1 1 102.85714,0 z"
       transform="translate(-91.428571,327.14286)" />
    <path
       sodipodi:type="arc"
       style="fill:#808080"
       id="path3020-4-00"
       sodipodi:cx="180"
       sodipodi:cy="179.50504"
       sodipodi:rx="51.42857"
       sodipodi:ry="41.42857"
       d="m 231.42857,179.50504 a 51.42857,41.42857 0 1 1 -102.85714,0 51.42857,41.42857 0 1 1 102.85714,0 z"
       transform="translate(-45.714286,610)" />
    <path
       sodipodi:type="arc"
       style="fill:#808080"
       id="path3020-4-9"
       sodipodi:cx="180"
       sodipodi:cy="179.50504"
       sodipodi:rx="51.42857"
       sodipodi:ry="41.42857"
       d="m 231.42857,179.50504 a 51.42857,41.42857 0 1 1 -102.85714,0 51.42857,41.42857 0 1 1 102.85714,0 z"
       transform="translate(237.14286,578.57143)" />
    <path
       sodipodi:type="arc"
       style="fill:#808080"
       id="path3020-4-859"
       sodipodi:cx="180"
       sodipodi:cy="179.50504"
       sodipodi:rx="51.42857"
       sodipodi:ry="41.42857"
       d="m 231.42857,179.50504 a 51.42857,41.42857 0 1 1 -102.85714,0 51.42857,41.42857 0 1 1 102.85714,0 z"
       transform="translate(460,741.42858)" />
    <path
       sodipodi:type="arc"
       style="fill:#808080"
       id="path3020-4-7"
       sodipodi:cx="180"
       sodipodi:cy="179.50504"
       sodipodi:rx="51.42857"
       sodipodi:ry="41.42857"
       d="m 231.42857,179.50504 a 51.42857,41.42857 0 1 1 -102.85714,0 51.42857,41.42857 0 1 1 102.85714,0 z"
       transform="translate(108.57143,735.71429)" />
    <path
       sodipodi:type="arc"
       style="fill:#808080"
       id="path3020-4-25"
       sodipodi:cx="180"
       sodipodi:cy="179.50504"
       sodipodi:rx="51.42857"
       sodipodi:ry="41.42857"
       d="m 231.42857,179.50504 a 51.42857,41.42857 0 1 1 -102.85714,0 51.42857,41.42857 0 1 1 102.85714,0 z"
       transform="translate(54.285714,481.42858)" />
    <text
       xml:space="preserve"
       style="font-size:40px;font-style:normal;font-weight:normal;line-height:125%;letter-spacing:0px;word-spacing:0px;fill:#000000;fill-opacity:1;stroke:none;font-family:Sans"
       x="45.714287"
       y="69.505043"
       id="text3142"
       sodipodi:linespacing="125%"><tspan
         sodipodi:role="line"
         id="tspan3144"
         x="45.714287"
         y="69.505043">Distributed Network</tspan><tspan
         sodipodi:role="line"
         x="45.714287"
         y="119.50504"
         id="tspan3146" /></text>
    <text
       xml:space="preserve"
       style="font-size:28px;font-style:normal;font-weight:normal;line-height:125%;letter-spacing:0px;word-spacing:0px;fill:#000000;fill-opacity:1;stroke:none;font-family:Sans"
       x="142.85715"
       y="118.07647"
       id="text3148"
       sodipodi:linespacing="125%"><tspan
         sodipodi:role="line"
         id="tspan3150"
         x="142.85715"
         y="118.07647"
         style="font-size:32px">Twister, BitMessage</tspan></text>
  </g>
</svg>
