<?xml version="1.0" encoding="UTF-8" standalone="no"?>
<!-- Created with Inkscape (http://www.inkscape.org/) -->

<svg
   xmlns:dc="http://purl.org/dc/elements/1.1/"
   xmlns:cc="http://creativecommons.org/ns#"
   xmlns:rdf="http://www.w3.org/1999/02/22-rdf-syntax-ns#"
   xmlns:svg="http://www.w3.org/2000/svg"
   xmlns="http://www.w3.org/2000/svg"
   xmlns:sodipodi="http://sodipodi.sourceforge.net/DTD/sodipodi-0.dtd"
   xmlns:inkscape="http://www.inkscape.org/namespaces/inkscape"
   width="744.09448819"
   height="1052.3622047"
   id="svg3944"
   version="1.1"
   inkscape:version="0.48.4 r9939"
   sodipodi:docname="New document 5">
  <defs
     id="defs3946" />
  <sodipodi:namedview
     id="base"
     pagecolor="#ffffff"
     bordercolor="#666666"
     borderopacity="1.0"
     inkscape:pageopacity="0.0"
     inkscape:pageshadow="2"
     inkscape:zoom="0.35"
     inkscape:cx="-102.14286"
     inkscape:cy="520"
     inkscape:document-units="px"
     inkscape:current-layer="layer7"
     showgrid="false"
     inkscape:window-width="1366"
     inkscape:window-height="718"
     inkscape:window-x="0"
     inkscape:window-y="0"
     inkscape:window-maximized="1" />
  <metadata
     id="metadata3949">
    <rdf:RDF>
      <cc:Work
         rdf:about="">
        <dc:format>image/svg+xml</dc:format>
        <dc:type
           rdf:resource="http://purl.org/dc/dcmitype/StillImage" />
        <dc:title></dc:title>
      </cc:Work>
    </rdf:RDF>
  </metadata>
  <g
     inkscape:groupmode="layer"
     id="layer7"
     inkscape:label="node connections">
    <path
       style="fill:#ff00ff;stroke:#df18ec;stroke-width:10;stroke-linecap:butt;stroke-linejoin:miter;stroke-opacity:1;stroke-miterlimit:4;stroke-dasharray:none"
       d="M 245.71429,343.79075 554.28571,235.21933"
       id="path4775"
       inkscape:connector-curvature="0" />
    <path
       style="fill:none;stroke:#f00dd3;stroke-width:10;stroke-linecap:butt;stroke-linejoin:miter;stroke-opacity:1;stroke-miterlimit:4;stroke-dasharray:none"
       d="m 237.14286,366.6479 -48.57143,268.57143 -40,274.28571 L 520,840.93361 540,515.21933 562.85714,240.93361 205.71429,643.79075 542.85714,855.21933"
       id="path4777"
       inkscape:connector-curvature="0" />
    <path
       style="fill:none;stroke:#f00dd3;stroke-width:10;stroke-linecap:butt;stroke-linejoin:miter;stroke-opacity:1;stroke-miterlimit:4;stroke-dasharray:none"
       d="M 200,629.50504 542.85714,518.07647 140,918.07647"
       id="path4779"
       inkscape:connector-curvature="0" />
    <path
       style="fill:none;stroke:#f00dd3;stroke-width:10;stroke-linecap:butt;stroke-linejoin:miter;stroke-opacity:1;stroke-miterlimit:4;stroke-dasharray:none"
       d="M 251.42857,346.6479 540,532.36218"
       id="path4781"
       inkscape:connector-curvature="0" />
  </g>
  <g
     inkscape:groupmode="layer"
     id="layer5"
     inkscape:label="user connections">
    <path
       style="fill:none;stroke:#000000;stroke-width:5;stroke-linecap:butt;stroke-linejoin:miter;stroke-opacity:1;stroke-miterlimit:4;stroke-dasharray:none"
       d="m 114.28571,349.50504 137.14286,-2.85714 -91.42857,-120 94.28571,117.14285 22.85715,-117.14285 -25.71429,114.28571 131.42857,-25.71428 -131.42857,25.71428 94.28572,100 -91.42858,-97.14286 -40,117.14286"
       id="path4201"
       inkscape:connector-curvature="0" />
    <path
       style="fill:none;stroke:#000000;stroke-width:5;stroke-linecap:butt;stroke-linejoin:miter;stroke-opacity:1;stroke-miterlimit:4;stroke-dasharray:none"
       d="M 557.14286,235.21933 642.85714,120.93361"
       id="path4711"
       inkscape:connector-curvature="0" />
    <path
       style="fill:none;stroke:#000000;stroke-width:5;stroke-linecap:butt;stroke-linejoin:miter;stroke-opacity:1;stroke-miterlimit:4;stroke-dasharray:none"
       d="m 68.571429,558.07647 128.571431,80 128.57143,-54.28572"
       id="path4713"
       inkscape:connector-curvature="0" />
    <path
       style="fill:none;stroke:#000000;stroke-width:5;stroke-linecap:butt;stroke-linejoin:miter;stroke-opacity:1;stroke-miterlimit:4;stroke-dasharray:none"
       d="m 674.28571,463.79075 -137.14285,65.71429 120,45.71429"
       id="path4715"
       inkscape:connector-curvature="0" />
    <path
       style="fill:none;stroke:#000000;stroke-width:5;stroke-linecap:butt;stroke-linejoin:miter;stroke-opacity:1;stroke-miterlimit:4;stroke-dasharray:none"
       d="M 551.42857,655.21933 537.14286,526.6479"
       id="path4717"
       inkscape:connector-curvature="0" />
    <path
       style="fill:none;stroke:#000000;stroke-width:5;stroke-linecap:butt;stroke-linejoin:miter;stroke-opacity:1;stroke-miterlimit:4;stroke-dasharray:none"
       d="M 397.14286,740.93361 520,843.79075 642.85714,895.21933"
       id="path4719"
       inkscape:connector-curvature="0" />
    <path
       style="fill:none;stroke:#000000;stroke-width:5;stroke-linecap:butt;stroke-linejoin:miter;stroke-opacity:1;stroke-miterlimit:4;stroke-dasharray:none"
       d="m 474.28571,989.50504 40,-148.57143"
       id="path4721"
       inkscape:connector-curvature="0" />
    <path
       style="fill:none;stroke:#000000;stroke-width:5;stroke-linecap:butt;stroke-linejoin:miter;stroke-opacity:1;stroke-miterlimit:4;stroke-dasharray:none"
       d="M 297.14286,938.07647 154.28571,909.50504 131.42857,775.21933"
       id="path4723"
       inkscape:connector-curvature="0" />
    <path
       style="fill:none;stroke:#000000;stroke-width:5;stroke-linecap:butt;stroke-linejoin:miter;stroke-opacity:1;stroke-miterlimit:4;stroke-dasharray:none"
       d="M 51.428571,1000.9336 142.85714,912.36218"
       id="path4764"
       inkscape:connector-curvature="0" />
    <path
       style="fill:none;stroke:#000000;stroke-width:5;stroke-linecap:butt;stroke-linejoin:miter;stroke-opacity:1;stroke-miterlimit:4;stroke-dasharray:none"
       d="M 634.28571,732.36218 520,829.50504"
       id="path4766"
       inkscape:connector-curvature="0" />
  </g>
  <g
     inkscape:label="Layer 1"
     inkscape:groupmode="layer"
     id="layer1">
    <text
       xml:space="preserve"
       style="font-size:40px;font-style:normal;font-weight:normal;line-height:125%;letter-spacing:0px;word-spacing:0px;fill:#000000;fill-opacity:1;stroke:none;font-family:Sans"
       x="37.142857"
       y="69.505043"
       id="text3952"
       sodipodi:linespacing="125%"><tspan
         sodipodi:role="line"
         id="tspan3954"
         x="37.142857"
         y="69.505043">Federated Network</tspan></text>
    <text
       xml:space="preserve"
       style="font-size:28px;font-style:normal;font-weight:normal;line-height:125%;letter-spacing:0px;word-spacing:0px;fill:#000000;fill-opacity:1;stroke:none;font-family:Sans"
       x="100"
       y="112.36217"
       id="text3956"
       sodipodi:linespacing="125%"><tspan
         sodipodi:role="line"
         id="tspan3958"
         x="100"
         y="112.36217"
         style="font-size:32px">Pump.io, GNU Social, </tspan></text>
  </g>
  <g
     inkscape:groupmode="layer"
     id="layer3"
     inkscape:label="nodes">
    <path
       sodipodi:type="arc"
       style="fill:#0000ff;fill-opacity:1;stroke:#000000;stroke-width:5;stroke-linecap:butt;stroke-miterlimit:4;stroke-opacity:1;stroke-dasharray:none"
       id="path4015"
       sodipodi:cx="248.57143"
       sodipodi:cy="349.50504"
       sodipodi:rx="68.571426"
       sodipodi:ry="65.714287"
       d="m 317.14285,349.50504 a 68.571426,65.714287 0 1 1 -137.14285,0 68.571426,65.714287 0 1 1 137.14285,0 z" />
    <path
       transform="translate(305.71429,-111.42857)"
       sodipodi:type="arc"
       style="fill:#0000ff;fill-opacity:1;stroke:#000000;stroke-width:5;stroke-linecap:butt;stroke-miterlimit:4;stroke-opacity:1;stroke-dasharray:none"
       id="path4015-7"
       sodipodi:cx="248.57143"
       sodipodi:cy="349.50504"
       sodipodi:rx="68.571426"
       sodipodi:ry="65.714287"
       d="m 317.14285,349.50504 a 68.571426,65.714287 0 1 1 -137.14285,0 68.571426,65.714287 0 1 1 137.14285,0 z" />
    <path
       transform="translate(291.42857,180)"
       sodipodi:type="arc"
       style="fill:#0000ff;fill-opacity:1;stroke:#000000;stroke-width:5;stroke-linecap:butt;stroke-miterlimit:4;stroke-opacity:1;stroke-dasharray:none"
       id="path4015-2"
       sodipodi:cx="248.57143"
       sodipodi:cy="349.50504"
       sodipodi:rx="68.571426"
       sodipodi:ry="65.714287"
       d="m 317.14285,349.50504 a 68.571426,65.714287 0 1 1 -137.14285,0 68.571426,65.714287 0 1 1 137.14285,0 z" />
    <path
       transform="translate(-54.285712,285.71429)"
       sodipodi:type="arc"
       style="fill:#0000ff;fill-opacity:1;stroke:#000000;stroke-width:5;stroke-linecap:butt;stroke-miterlimit:4;stroke-opacity:1;stroke-dasharray:none"
       id="path4015-0"
       sodipodi:cx="248.57143"
       sodipodi:cy="349.50504"
       sodipodi:rx="68.571426"
       sodipodi:ry="65.714287"
       d="m 317.14285,349.50504 a 68.571426,65.714287 0 1 1 -137.14285,0 68.571426,65.714287 0 1 1 137.14285,0 z" />
    <path
       transform="translate(265.71429,488.57143)"
       sodipodi:type="arc"
       style="fill:#0000ff;fill-opacity:1;stroke:#000000;stroke-width:5;stroke-linecap:butt;stroke-miterlimit:4;stroke-opacity:1;stroke-dasharray:none"
       id="path4015-28"
       sodipodi:cx="248.57143"
       sodipodi:cy="349.50504"
       sodipodi:rx="68.571426"
       sodipodi:ry="65.714287"
       d="m 317.14285,349.50504 a 68.571426,65.714287 0 1 1 -137.14285,0 68.571426,65.714287 0 1 1 137.14285,0 z" />
    <path
       transform="translate(-97.142855,562.85715)"
       sodipodi:type="arc"
       style="fill:#0000ff;fill-opacity:1;stroke:#000000;stroke-width:5;stroke-linecap:butt;stroke-miterlimit:4;stroke-opacity:1;stroke-dasharray:none"
       id="path4015-20"
       sodipodi:cx="248.57143"
       sodipodi:cy="349.50504"
       sodipodi:rx="68.571426"
       sodipodi:ry="65.714287"
       d="m 317.14285,349.50504 a 68.571426,65.714287 0 1 1 -137.14285,0 68.571426,65.714287 0 1 1 137.14285,0 z" />
  </g>
  <g
     inkscape:groupmode="layer"
     id="layer4"
     inkscape:label="users">
    <path
       sodipodi:type="arc"
       style="fill:#4d4d4d;fill-opacity:1;stroke:#000000;stroke-width:5;stroke-linecap:butt;stroke-miterlimit:4;stroke-opacity:1;stroke-dasharray:none"
       id="path4075"
       sodipodi:cx="158.57143"
       sodipodi:cy="226.6479"
       sodipodi:rx="27.142857"
       sodipodi:ry="22.857143"
       d="m 185.71428,226.6479 a 27.142857,22.857143 0 1 1 -54.28571,0 27.142857,22.857143 0 1 1 54.28571,0 z" />
    <path
       transform="translate(121.42857,-6.5394811e-6)"
       sodipodi:type="arc"
       style="fill:#4d4d4d;fill-opacity:1;stroke:#000000;stroke-width:5;stroke-linecap:butt;stroke-miterlimit:4;stroke-opacity:1;stroke-dasharray:none"
       id="path4075-0"
       sodipodi:cx="158.57143"
       sodipodi:cy="226.6479"
       sodipodi:rx="27.142857"
       sodipodi:ry="22.857143"
       d="m 185.71428,226.6479 a 27.142857,22.857143 0 1 1 -54.28571,0 27.142857,22.857143 0 1 1 54.28571,0 z" />
    <path
       transform="translate(-52.857141,128.57142)"
       sodipodi:type="arc"
       style="fill:#4d4d4d;fill-opacity:1;stroke:#000000;stroke-width:5;stroke-linecap:butt;stroke-miterlimit:4;stroke-opacity:1;stroke-dasharray:none"
       id="path4075-2"
       sodipodi:cx="158.57143"
       sodipodi:cy="226.6479"
       sodipodi:rx="27.142857"
       sodipodi:ry="22.857143"
       d="m 185.71428,226.6479 a 27.142857,22.857143 0 1 1 -54.28571,0 27.142857,22.857143 0 1 1 54.28571,0 z" />
    <path
       transform="translate(58.571431,237.14285)"
       sodipodi:type="arc"
       style="fill:#4d4d4d;fill-opacity:1;stroke:#000000;stroke-width:5;stroke-linecap:butt;stroke-miterlimit:4;stroke-opacity:1;stroke-dasharray:none"
       id="path4075-8"
       sodipodi:cx="158.57143"
       sodipodi:cy="226.6479"
       sodipodi:rx="27.142857"
       sodipodi:ry="22.857143"
       d="m 185.71428,226.6479 a 27.142857,22.857143 0 1 1 -54.28571,0 27.142857,22.857143 0 1 1 54.28571,0 z" />
    <path
       transform="translate(187.14286,217.14285)"
       sodipodi:type="arc"
       style="fill:#4d4d4d;fill-opacity:1;stroke:#000000;stroke-width:5;stroke-linecap:butt;stroke-miterlimit:4;stroke-opacity:1;stroke-dasharray:none"
       id="path4075-5"
       sodipodi:cx="158.57143"
       sodipodi:cy="226.6479"
       sodipodi:rx="27.142857"
       sodipodi:ry="22.857143"
       d="m 185.71428,226.6479 a 27.142857,22.857143 0 1 1 -54.28571,0 27.142857,22.857143 0 1 1 54.28571,0 z" />
    <path
       transform="translate(221.42857,97.142851)"
       sodipodi:type="arc"
       style="fill:#4d4d4d;fill-opacity:1;stroke:#000000;stroke-width:5;stroke-linecap:butt;stroke-miterlimit:4;stroke-opacity:1;stroke-dasharray:none"
       id="path4075-28"
       sodipodi:cx="158.57143"
       sodipodi:cy="226.6479"
       sodipodi:rx="27.142857"
       sodipodi:ry="22.857143"
       d="m 185.71428,226.6479 a 27.142857,22.857143 0 1 1 -54.28571,0 27.142857,22.857143 0 1 1 54.28571,0 z" />
    <path
       transform="translate(395.71429,431.42856)"
       sodipodi:type="arc"
       style="fill:#4d4d4d;fill-opacity:1;stroke:#000000;stroke-width:5;stroke-linecap:butt;stroke-miterlimit:4;stroke-opacity:1;stroke-dasharray:none"
       id="path4075-7"
       sodipodi:cx="158.57143"
       sodipodi:cy="226.6479"
       sodipodi:rx="27.142857"
       sodipodi:ry="22.857143"
       d="m 185.71428,226.6479 a 27.142857,22.857143 0 1 1 -54.28571,0 27.142857,22.857143 0 1 1 54.28571,0 z" />
    <path
       transform="translate(515.71429,239.99999)"
       sodipodi:type="arc"
       style="fill:#4d4d4d;fill-opacity:1;stroke:#000000;stroke-width:5;stroke-linecap:butt;stroke-miterlimit:4;stroke-opacity:1;stroke-dasharray:none"
       id="path4075-284"
       sodipodi:cx="158.57143"
       sodipodi:cy="226.6479"
       sodipodi:rx="27.142857"
       sodipodi:ry="22.857143"
       d="m 185.71428,226.6479 a 27.142857,22.857143 0 1 1 -54.28571,0 27.142857,22.857143 0 1 1 54.28571,0 z" />
    <path
       transform="translate(498.57143,345.71428)"
       sodipodi:type="arc"
       style="fill:#4d4d4d;fill-opacity:1;stroke:#000000;stroke-width:5;stroke-linecap:butt;stroke-miterlimit:4;stroke-opacity:1;stroke-dasharray:none"
       id="path4075-3"
       sodipodi:cx="158.57143"
       sodipodi:cy="226.6479"
       sodipodi:rx="27.142857"
       sodipodi:ry="22.857143"
       d="m 185.71428,226.6479 a 27.142857,22.857143 0 1 1 -54.28571,0 27.142857,22.857143 0 1 1 54.28571,0 z" />
    <path
       transform="translate(487.14286,-102.85715)"
       sodipodi:type="arc"
       style="fill:#4d4d4d;fill-opacity:1;stroke:#000000;stroke-width:5;stroke-linecap:butt;stroke-miterlimit:4;stroke-opacity:1;stroke-dasharray:none"
       id="path4075-72"
       sodipodi:cx="158.57143"
       sodipodi:cy="226.6479"
       sodipodi:rx="27.142857"
       sodipodi:ry="22.857143"
       d="m 185.71428,226.6479 a 27.142857,22.857143 0 1 1 -54.28571,0 27.142857,22.857143 0 1 1 54.28571,0 z" />
    <path
       transform="translate(484.28572,668.57142)"
       sodipodi:type="arc"
       style="fill:#4d4d4d;fill-opacity:1;stroke:#000000;stroke-width:5;stroke-linecap:butt;stroke-miterlimit:4;stroke-opacity:1;stroke-dasharray:none"
       id="path4075-1"
       sodipodi:cx="158.57143"
       sodipodi:cy="226.6479"
       sodipodi:rx="27.142857"
       sodipodi:ry="22.857143"
       d="m 185.71428,226.6479 a 27.142857,22.857143 0 1 1 -54.28571,0 27.142857,22.857143 0 1 1 54.28571,0 z" />
    <path
       transform="translate(318.57143,759.99999)"
       sodipodi:type="arc"
       style="fill:#4d4d4d;fill-opacity:1;stroke:#000000;stroke-width:5;stroke-linecap:butt;stroke-miterlimit:4;stroke-opacity:1;stroke-dasharray:none"
       id="path4075-86"
       sodipodi:cx="158.57143"
       sodipodi:cy="226.6479"
       sodipodi:rx="27.142857"
       sodipodi:ry="22.857143"
       d="m 185.71428,226.6479 a 27.142857,22.857143 0 1 1 -54.28571,0 27.142857,22.857143 0 1 1 54.28571,0 z" />
    <path
       transform="translate(241.42858,514.2857)"
       sodipodi:type="arc"
       style="fill:#4d4d4d;fill-opacity:1;stroke:#000000;stroke-width:5;stroke-linecap:butt;stroke-miterlimit:4;stroke-opacity:1;stroke-dasharray:none"
       id="path4075-6"
       sodipodi:cx="158.57143"
       sodipodi:cy="226.6479"
       sodipodi:rx="27.142857"
       sodipodi:ry="22.857143"
       d="m 185.71428,226.6479 a 27.142857,22.857143 0 1 1 -54.28571,0 27.142857,22.857143 0 1 1 54.28571,0 z" />
    <path
       transform="translate(138.57143,714.28571)"
       sodipodi:type="arc"
       style="fill:#4d4d4d;fill-opacity:1;stroke:#000000;stroke-width:5;stroke-linecap:butt;stroke-miterlimit:4;stroke-opacity:1;stroke-dasharray:none"
       id="path4075-58"
       sodipodi:cx="158.57143"
       sodipodi:cy="226.6479"
       sodipodi:rx="27.142857"
       sodipodi:ry="22.857143"
       d="m 185.71428,226.6479 a 27.142857,22.857143 0 1 1 -54.28571,0 27.142857,22.857143 0 1 1 54.28571,0 z" />
    <path
       transform="translate(-24.285712,551.42856)"
       sodipodi:type="arc"
       style="fill:#4d4d4d;fill-opacity:1;stroke:#000000;stroke-width:5;stroke-linecap:butt;stroke-miterlimit:4;stroke-opacity:1;stroke-dasharray:none"
       id="path4075-56"
       sodipodi:cx="158.57143"
       sodipodi:cy="226.6479"
       sodipodi:rx="27.142857"
       sodipodi:ry="22.857143"
       d="m 185.71428,226.6479 a 27.142857,22.857143 0 1 1 -54.28571,0 27.142857,22.857143 0 1 1 54.28571,0 z" />
    <path
       transform="translate(-87.142855,331.42856)"
       sodipodi:type="arc"
       style="fill:#4d4d4d;fill-opacity:1;stroke:#000000;stroke-width:5;stroke-linecap:butt;stroke-miterlimit:4;stroke-opacity:1;stroke-dasharray:none"
       id="path4075-80"
       sodipodi:cx="158.57143"
       sodipodi:cy="226.6479"
       sodipodi:rx="27.142857"
       sodipodi:ry="22.857143"
       d="m 185.71428,226.6479 a 27.142857,22.857143 0 1 1 -54.28571,0 27.142857,22.857143 0 1 1 54.28571,0 z" />
    <path
       transform="translate(164.28572,354.28571)"
       sodipodi:type="arc"
       style="fill:#4d4d4d;fill-opacity:1;stroke:#000000;stroke-width:5;stroke-linecap:butt;stroke-miterlimit:4;stroke-opacity:1;stroke-dasharray:none"
       id="path4075-57"
       sodipodi:cx="158.57143"
       sodipodi:cy="226.6479"
       sodipodi:rx="27.142857"
       sodipodi:ry="22.857143"
       d="m 185.71428,226.6479 a 27.142857,22.857143 0 1 1 -54.28571,0 27.142857,22.857143 0 1 1 54.28571,0 z" />
    <path
       transform="translate(-104.28571,774.28571)"
       sodipodi:type="arc"
       style="fill:#4d4d4d;fill-opacity:1;stroke:#000000;stroke-width:5;stroke-linecap:butt;stroke-miterlimit:4;stroke-opacity:1;stroke-dasharray:none"
       id="path4075-56-7"
       sodipodi:cx="158.57143"
       sodipodi:cy="226.6479"
       sodipodi:rx="27.142857"
       sodipodi:ry="22.857143"
       d="m 185.71428,226.6479 a 27.142857,22.857143 0 1 1 -54.28571,0 27.142857,22.857143 0 1 1 54.28571,0 z" />
    <path
       transform="translate(478.57143,508.57142)"
       sodipodi:type="arc"
       style="fill:#4d4d4d;fill-opacity:1;stroke:#000000;stroke-width:5;stroke-linecap:butt;stroke-miterlimit:4;stroke-opacity:1;stroke-dasharray:none"
       id="path4075-56-1"
       sodipodi:cx="158.57143"
       sodipodi:cy="226.6479"
       sodipodi:rx="27.142857"
       sodipodi:ry="22.857143"
       d="m 185.71428,226.6479 a 27.142857,22.857143 0 1 1 -54.28571,0 27.142857,22.857143 0 1 1 54.28571,0 z" />
  </g>
</svg>
